<svg preserveAspectRatio="none" overflow="visible" style="display: block;" width="22.5" height="25" viewBox="0 0 22.5 25" fill="none" xmlns="http://www.w3.org/2000/svg">
<g id="Calendar">
<path id="Fill 1" opacity="0.4" fill-rule="evenodd" clip-rule="evenodd" d="M7.43376 3.85191H15.1121V2.06414H7.43376V3.85191ZM5.68707 2.13756V2.14646C5.08768 2.20097 4.49473 2.32 3.91786 2.49912V2.49244C3.90071 2.49965 3.88457 2.5052 3.86907 2.51053C3.84873 2.51752 3.82951 2.52413 3.81064 2.5336C3.76453 2.54473 3.7195 2.56141 3.67661 2.58255C3.55008 2.62371 3.42356 2.67266 3.30454 2.72273C3.27291 2.73496 3.24128 2.74915 3.20965 2.76333C3.17801 2.77752 3.14638 2.7917 3.11475 2.80394C3.07133 2.82452 3.02602 2.84705 2.98072 2.86958C2.93542 2.8921 2.89012 2.91463 2.84669 2.93521L2.63224 3.0587C2.59259 3.07892 2.55589 3.10264 2.51844 3.12684C2.49614 3.14125 2.47357 3.15583 2.44996 3.16995C2.12721 3.37798 1.82806 3.62162 1.55785 3.89863L1.54177 3.91532C1.50628 3.95669 1.47094 3.99683 1.43608 4.03642C1.3772 4.1033 1.31968 4.16863 1.26513 4.23571L1.24905 4.25129C0.371951 5.46168 -0.0676696 6.95353 0.00845978 8.4654V8.94489H1.74013V8.46095C1.74013 6.35389 2.41136 5.04227 3.905 4.37032C4.47543 4.12891 5.07803 3.97984 5.69136 3.92533H5.70744V2.14534L5.68707 2.13756ZM21.2475 4.22904L21.255 4.24461C22.131 5.45612 22.5685 6.94908 22.4913 8.46095V8.94489H20.7607V8.44872C20.7971 7.5565 20.6181 6.66873 20.2385 5.86663C19.8739 5.18022 19.2906 4.64734 18.5862 4.35809C18.0254 4.11668 17.4314 3.96649 16.8255 3.91309V2.14201C17.4249 2.19763 18.0179 2.31556 18.5958 2.49467V2.48577C18.6283 2.5005 18.6531 2.50926 18.6956 2.5243L18.703 2.52693C18.7228 2.53391 18.7412 2.54089 18.7594 2.54779C18.7847 2.55738 18.8096 2.56682 18.8371 2.57588C18.9556 2.61477 19.0665 2.66062 19.1806 2.70778L19.2006 2.71605C19.2532 2.73454 19.3028 2.75747 19.3475 2.77813C19.3619 2.78482 19.3759 2.79128 19.3893 2.79726C19.4836 2.83843 19.5801 2.88738 19.6573 2.92854C19.7088 2.95526 19.759 2.98385 19.806 3.01066C19.8314 3.02516 19.856 3.03914 19.8793 3.05202C19.9177 3.07324 19.9511 3.09594 19.9832 3.11777C20.0067 3.13371 20.0295 3.14918 20.053 3.16327C20.3768 3.37242 20.6792 3.61717 20.9526 3.89195L20.9623 3.90864C21.063 4.00988 21.1585 4.11668 21.2475 4.22904Z" fill="#5669FF"/>
<path id="Fill 4" d="M16.875 0.89616V4.83558C16.875 5.33193 16.4723 5.73396 15.975 5.73396C15.4778 5.73396 15.075 5.33193 15.075 4.83558V0.905144C15.0705 0.408786 15.471 0.00339014 15.9683 2.1196e-05C16.4655 -0.00334775 16.8717 0.39531 16.875 0.891668V0.89616Z" fill="#5669FF"/>
<path id="Fill 6" d="M7.425 0.910436V4.84011C7.425 5.33862 7.02176 5.74282 6.52444 5.74282C6.02712 5.74282 5.625 5.33862 5.625 4.84011V0.910436C5.625 0.411928 6.02712 0.00885558 6.52444 0.00885558C7.02176 0.00885558 7.425 0.411928 7.425 0.910436" fill="#5669FF"/>
<path id="Fill 8" fill-rule="evenodd" clip-rule="evenodd" d="M0 18.6377V8.94488H22.5V18.6377C22.5 22.8645 20.1395 25 15.4614 25H7.0279C2.36052 25 0 22.8645 0 18.6377ZM5.07513 14.3335C5.07513 14.9199 5.5365 15.3957 6.10517 15.3957C6.68457 15.3957 7.14594 14.9088 7.13521 14.3224C7.13521 13.736 6.67384 13.2602 6.1159 13.2602H6.10517C5.5365 13.2602 5.07513 13.747 5.07513 14.3335ZM10.2146 14.3335C10.2146 14.9199 10.6867 15.3957 11.2554 15.3957C11.824 15.3957 12.2854 14.9199 12.2854 14.3224C12.2854 13.747 11.824 13.2712 11.2554 13.2602H11.2446C10.676 13.2712 10.2146 13.747 10.2146 14.3335ZM16.3949 15.3957C15.8262 15.3957 15.3648 14.9199 15.3648 14.3335C15.3648 13.747 15.8155 13.2712 16.3949 13.2712C16.9635 13.2712 17.4249 13.747 17.4249 14.3335C17.4249 14.9199 16.9635 15.3957 16.3949 15.3957ZM16.3949 19.9323C15.8262 19.9323 15.3648 19.4565 15.3541 18.87C15.3541 18.2836 15.8155 17.8078 16.3841 17.8078H16.3949C16.9635 17.8078 17.4249 18.2836 17.4249 18.87C17.4249 19.4565 16.9635 19.9323 16.3949 19.9323ZM11.2554 19.9323C10.6867 19.9323 10.2146 19.4565 10.2146 18.87C10.2146 18.2836 10.676 17.8078 11.2446 17.7968H11.2554C11.824 17.8078 12.2747 18.2836 12.2854 18.859C12.2854 19.4565 11.824 19.9323 11.2554 19.9323ZM6.10515 19.9323C5.53648 19.9323 5.07511 19.4565 5.07511 18.87C5.06438 18.2836 5.52575 17.7968 6.10515 17.7968C6.67382 17.7968 7.13519 18.2725 7.13519 18.859C7.13519 19.4454 6.67382 19.9323 6.10515 19.9323Z" fill="#5669FF"/>
</g>
</svg>
